<!--?xml version="1.0" standalone="no"?-->
              <svg id="sw-js-blob-svg" viewBox="0 0 100 100" xmlns="http://www.w3.org/2000/svg" version="1.1">
                    <defs> 
                        <linearGradient id="sw-gradient" x1="0" x2="1" y1="1" y2="0">
                            <stop id="stop1" stop-color="rgba(225.141, 116.304, 64.793, 1)" offset="0%"></stop>
                            <stop id="stop2" stop-color="rgba(251, 168, 31, 1)" offset="100%"></stop>
                        </linearGradient>
                    </defs>
                <path fill="url(#sw-gradient)" d="M17.3,-18.4C23.9,-15,31.9,-11,33.7,-5.3C35.4,0.4,30.9,7.8,26,13.7C21,19.5,15.6,23.8,8.4,29C1.2,34.2,-7.9,40.3,-16.2,39.5C-24.5,38.7,-32.2,30.8,-37.4,21.6C-42.7,12.5,-45.6,2,-41.6,-5.1C-37.7,-12.1,-26.9,-15.7,-18.9,-18.9C-10.8,-22,-5.4,-24.8,0,-24.8C5.3,-24.7,10.6,-21.9,17.3,-18.4Z" width="100%" height="100%" transform="translate(50 50)" stroke-width="0" style="transition: 0.3s;" stroke="url(#sw-gradient)"></path>
              </svg>