<!--?xml version="1.0" standalone="no"?-->
              <svg id="sw-js-blob-svg" viewBox="0 0 100 100" xmlns="http://www.w3.org/2000/svg" version="1.1">
                    <defs> 
                        <linearGradient id="sw-gradient" x1="0" x2="1" y1="1" y2="0">
                            <stop id="stop1" stop-color="rgba(225.141, 116.304, 64.793, 1)" offset="0%"></stop>
                            <stop id="stop2" stop-color="rgba(251, 168, 31, 1)" offset="100%"></stop>
                        </linearGradient>
                    </defs>
                <path fill="url(#sw-gradient)" d="M25.1,-29.7C30.8,-25.1,32.5,-15.6,34.7,-5.7C36.9,4.1,39.6,14.3,35.9,20.6C32.1,26.8,21.8,29.2,12,32.7C2.2,36.1,-7.1,40.7,-14.3,38.4C-21.5,36.2,-26.5,27.2,-30.5,18.4C-34.5,9.7,-37.5,1.3,-36.1,-6.3C-34.7,-13.9,-28.9,-20.7,-22.1,-25.1C-15.4,-29.5,-7.7,-31.5,1,-32.7C9.7,-33.9,19.4,-34.3,25.1,-29.7Z" width="100%" height="100%" transform="translate(50 50)" stroke-width="0" style="transition: 0.3s;" stroke="url(#sw-gradient)"></path>
              </svg>